<?xml version="1.0" standalone="no"?><!DOCTYPE svg PUBLIC "-//W3C//DTD SVG 1.1//EN" "http://www.w3.org/Graphics/SVG/1.1/DTD/svg11.dtd"><svg height="1024" node-id="1" sillyvg="true" template-height="1024" template-width="1024" version="1.1" viewBox="0 0 1024 1024" width="1024" xmlns="http://www.w3.org/2000/svg" xmlns:xlink="http://www.w3.org/1999/xlink"><defs node-id="14"><linearGradient gradientUnits="userSpaceOnUse" id="paint0_linear_2808_3804" node-id="7" spreadMethod="pad" x1="492" x2="492" y1="652.185" y2="752.009"><stop offset="0" stop-color="#e7f1fb"></stop><stop offset="1" stop-color="#e7f1fb" stop-opacity="0"></stop></linearGradient><linearGradient gradientUnits="userSpaceOnUse" id="paint1_linear_2808_3804" node-id="10" spreadMethod="pad" x1="493.058" x2="646.553" y1="234" y2="699.917"><stop offset="0" stop-color="#d1e4f8"></stop><stop offset="1" stop-color="#b7d2ed"></stop></linearGradient></defs><path d="M 812.00 851.83 L 172.00 851.83 C 229.93 733.60 351.46 652.18 492.00 652.18 C 632.54 652.18 754.07 733.60 812.00 851.83 Z" fill="url(#paint0_linear_2808_3804)" fill-rule="evenodd" node-id="29" stroke="none" target-height="199.65002" target-width="640" target-x="172" target-y="652.18"></path><path d="M 654.99 374.56 C 643.73 295.10 575.52 234.00 493.06 234.00 C 411.27 234.00 343.50 294.11 331.41 372.63 C 329.15 372.51 326.88 372.45 324.59 372.45 C 253.73 372.45 196.28 429.64 196.28 500.18 C 196.28 570.72 253.73 627.90 324.59 627.90 C 328.87 627.90 333.11 627.69 337.28 627.29 C 341.30 627.69 345.38 627.90 349.51 627.90 L 634.65 627.90 C 639.10 627.90 643.49 627.66 647.81 627.19 C 652.32 627.66 656.89 627.90 661.52 627.90 C 732.39 627.90 789.83 571.15 789.83 501.15 C 789.83 431.15 732.39 374.40 661.52 374.40 C 659.34 374.40 657.16 374.45 654.99 374.56 Z" fill="url(#paint1_linear_2808_3804)" fill-rule="evenodd" node-id="31" stroke="none" target-height="393.90002" target-width="593.55005" target-x="196.28" target-y="234"></path><path d="M 583.92 689.82 C 584.97 690.89 586.69 690.89 587.75 689.82 L 673.79 603.04 C 675.48 601.34 674.28 598.45 671.88 598.45 L 499.79 598.45 C 497.39 598.45 496.18 601.34 497.87 603.04 L 583.92 689.82 Z" fill="#d7eafe" fill-rule="nonzero" node-id="33" stroke="none" target-height="92.44" target-width="179.29999" target-x="496.18" target-y="598.45"></path><g node-id="39"><path d="M 543.91 617.38 L 629.11 617.38 L 629.11 509.19 L 543.91 509.19 Z" fill="#d7eafe" fill-rule="nonzero" group-id="1" node-id="37" stroke="none" target-height="108.19" target-width="85.20001" target-x="543.91" target-y="509.19"></path></g></svg>