<?xml version="1.0" standalone="no"?><!DOCTYPE svg PUBLIC "-//W3C//DTD SVG 1.1//EN" "http://www.w3.org/Graphics/SVG/1.1/DTD/svg11.dtd"><svg height="82" node-id="1" sillyvg="true" template-height="82" template-width="125" version="1.1" viewBox="0 0 125 82" width="125" xmlns="http://www.w3.org/2000/svg" xmlns:xlink="http://www.w3.org/1999/xlink"><defs node-id="23"></defs><g node-id="53"><path d="M 71.39 12.00 C 66.01 8.90 59.38 8.90 54.00 12.00 L 2.18 41.91 C 0.83 42.69 0.00 44.12 0.00 45.68 C 0.00 47.24 0.83 48.67 2.18 49.45 L 54.00 79.35 C 59.39 82.46 66.02 82.46 71.41 79.35 L 123.21 49.45 C 124.55 48.67 125.38 47.23 125.38 45.68 C 125.38 44.13 124.55 42.69 123.21 41.91 Z" fill="#00bced" fill-rule="evenodd" group-id="1" node-id="27" stroke="none" target-height="73.56" target-width="125.38" target-x="0" target-y="8.9"></path><path d="M 113.04 28.80 L 125.36 35.91 L 125.36 45.78 L 113.04 38.66 L 113.04 28.80 Z" fill="#00bced" fill-rule="evenodd" group-id="1" node-id="29" stroke="none" target-height="16.98" target-width="12.32" target-x="113.04" target-y="28.8"></path><path d="M 0.02 35.90 L 12.34 43.01 L 12.34 52.87 L 0.02 45.76 L 0.02 35.90 Z" fill="#00bced" fill-rule="evenodd" group-id="1" node-id="31" stroke="none" target-height="16.969997" target-width="12.32" target-x="0.02" target-y="35.9"></path><path d="M 71.40 2.33 C 66.01 -0.77 59.39 -0.77 54.00 2.33 L 2.18 32.24 C 0.84 33.02 0.01 34.46 0.01 36.01 C 0.01 37.56 0.84 39.00 2.18 39.78 L 54.00 69.68 C 59.39 72.80 66.03 72.80 71.42 69.68 L 123.21 39.78 C 124.56 39.00 125.39 37.57 125.39 36.01 C 125.39 34.45 124.56 33.02 123.21 32.24 Z" fill="#f4fcff" fill-rule="evenodd" group-id="1" node-id="33" stroke="none" target-height="73.57" target-width="125.38" target-x="0.01" target-y="-0.77"></path><path d="M 93.61 27.68 C 93.61 32.77 86.46 36.90 77.64 36.90 C 68.82 36.90 61.67 32.77 61.67 27.68 C 61.67 22.59 68.82 18.46 77.64 18.46 C 86.46 18.46 93.61 22.59 93.61 27.68 Z" fill="#b6ebff" fill-rule="nonzero" group-id="1" node-id="35" stroke="none" target-height="18.440002" target-width="31.940002" target-x="61.67" target-y="18.46"></path><path d="M 59.00 21.29 C 51.97 17.23 43.31 17.23 36.28 21.29 L 36.28 21.29 C 33.96 22.63 32.53 25.11 32.53 27.79 C 32.53 30.47 33.96 32.95 36.28 34.29 L 66.43 51.71 C 73.46 55.77 82.12 55.77 89.15 51.71 L 89.15 51.71 C 91.48 50.37 92.91 47.89 92.91 45.21 C 92.91 42.53 91.48 40.05 89.15 38.71 Z" fill="#b6ebff" fill-rule="evenodd" group-id="1" node-id="37" stroke="none" target-height="38.54" target-width="60.380005" target-x="32.53" target-y="17.23"></path><path d="M 36.73 51.00 L 38.05 39.41 L 56.81 50.20 Z" fill="#00bced" fill-rule="evenodd" group-id="1" node-id="39" stroke="none" target-height="11.59" target-width="20.080002" target-x="36.73" target-y="39.41"></path><path d="M 36.73 47.39 L 37.34 47.04 L 37.34 50.62 L 36.73 50.97 L 36.73 47.39 Z" fill="#00bced" fill-rule="evenodd" group-id="1" node-id="41" stroke="none" target-height="3.9300003" target-width="0.6100006" target-x="36.73" target-y="47.04"></path><path d="M 44.30 43.95 L 63.75 32.72 L 69.78 36.20 L 50.33 47.44 L 44.30 43.95 Z" fill="#00bced" fill-rule="evenodd" group-id="1" node-id="43" stroke="none" target-height="14.719997" target-width="25.48" target-x="44.3" target-y="32.72"></path><path d="M 63.75 28.20 L 69.78 31.68 L 69.78 36.20 L 63.75 32.72 L 63.75 28.20 Z" fill="#00bced" fill-rule="evenodd" group-id="1" node-id="45" stroke="none" target-height="8" target-width="6.029999" target-x="63.75" target-y="28.2"></path><path d="M 50.45 42.90 L 56.80 46.57 L 56.80 50.20 L 50.45 46.53 L 50.45 42.90 Z" fill="#00bced" fill-rule="evenodd" group-id="1" node-id="47" stroke="none" target-height="7.299999" target-width="6.3499985" target-x="50.45" target-y="42.9"></path><path d="M 36.73 47.41 L 38.05 35.82 L 56.81 46.65 Z" fill="#41d8ff" fill-rule="evenodd" group-id="1" node-id="49" stroke="none" target-height="11.59" target-width="20.080002" target-x="36.73" target-y="35.82"></path><path d="M 44.29 39.43 L 63.75 28.19 L 69.78 31.68 L 50.32 42.91 L 44.29 39.43 Z" fill="#41d8ff" fill-rule="evenodd" group-id="1" node-id="51" stroke="none" target-height="14.719999" target-width="25.489998" target-x="44.29" target-y="28.19"></path></g></svg>