<?xml version="1.0" standalone="no"?><!DOCTYPE svg PUBLIC "-//W3C//DTD SVG 1.1//EN" "http://www.w3.org/Graphics/SVG/1.1/DTD/svg11.dtd"><svg height="322" node-id="1" sillyvg="true" template-height="322" template-width="292" version="1.1" viewBox="0 0 292 322" width="292" xmlns="http://www.w3.org/2000/svg" xmlns:xlink="http://www.w3.org/1999/xlink"><defs node-id="16"><clipPath id="mask-2" node-id="9"><path d="M 39.00 54.00 L 253.02 54.00 L 253.02 268.02 L 39.00 268.02 Z" fill="#000000" fill-rule="evenodd" node-id="21" stroke="none" target-height="214.01999" target-width="214.02" target-x="39" target-y="54"></path></clipPath></defs><g node-id="32"><g node-id="33"><g clip-path="url(#mask-2)" group-id="1,2" node-id="30"><path d="M 253.02 161.01 L 252.77 168.14 L 252.10 175.08 L 251.00 181.83 L 249.49 188.41 L 247.56 194.83 L 245.22 201.17 L 242.53 207.26 L 239.50 213.12 L 236.11 218.77 L 232.37 224.21 L 227.24 230.67 L 221.68 236.68 L 215.67 242.24 L 209.21 247.37 L 203.77 251.11 L 198.12 254.50 L 192.26 257.53 L 186.17 260.22 L 179.83 262.56 L 173.41 264.49 L 166.83 266.00 L 160.08 267.10 L 153.14 267.77 L 146.01 268.02 L 138.87 267.77 L 131.94 267.10 L 125.19 266.00 L 118.61 264.49 L 112.19 262.56 L 105.85 260.22 L 99.76 257.53 L 93.89 254.50 L 88.25 251.11 L 82.81 247.37 L 76.35 242.24 L 70.34 236.68 L 64.78 230.67 L 59.65 224.21 L 55.91 218.77 L 52.52 213.12 L 49.49 207.26 L 46.80 201.17 L 44.45 194.83 L 42.53 188.41 L 41.02 181.83 L 39.92 175.08 L 39.25 168.14 L 39.00 161.01 L 39.25 153.87 L 39.92 146.94 L 41.02 140.19 L 42.53 133.61 L 44.45 127.19 L 46.80 120.85 L 49.49 114.76 L 52.52 108.89 L 55.91 103.25 L 59.65 97.81 L 64.78 91.35 L 70.34 85.34 L 76.35 79.78 L 82.81 74.65 L 88.25 70.91 L 93.89 67.52 L 99.76 64.49 L 105.85 61.80 L 112.19 59.46 L 118.61 57.53 L 125.19 56.02 L 131.94 54.92 L 138.87 54.25 L 146.01 54.00 L 153.14 54.25 L 160.08 54.92 L 166.83 56.02 L 173.41 57.53 L 179.83 59.46 L 186.17 61.80 L 192.26 64.49 L 198.12 67.52 L 203.77 70.91 L 209.21 74.65 L 215.67 79.78 L 221.68 85.34 L 227.24 91.35 L 232.37 97.81 L 236.11 103.25 L 239.50 108.89 L 242.53 114.76 L 245.22 120.85 L 247.56 127.19 L 249.49 133.61 L 251.00 140.19 L 252.10 146.94 L 252.77 153.87 L 253.02 161.01" fill="#becaff" fill-rule="evenodd" group-id="1,2,3" id="Fill-1" node-id="12" stroke="none" target-height="214.01999" target-width="214.02" target-x="39" target-y="54"></path></g></g><path d="M 118.75 131.37 L 121.16 124.25 L 122.53 120.95 L 124.25 118.00 L 126.32 115.35 L 128.72 112.98 L 131.35 110.98 L 134.23 109.33 L 137.29 108.05 L 140.48 107.18 L 143.81 106.72 L 147.17 106.69 L 150.56 107.12 L 154.01 108.04 L 154.88 108.33 L 158.64 109.93 L 161.92 111.90 L 164.79 114.25 L 167.30 116.98 L 169.37 119.93 L 171.01 123.13 L 172.22 126.53 L 172.97 130.00 L 173.26 133.59 L 173.07 137.18 L 172.40 140.71 L 171.23 144.21 L 169.58 147.51 L 167.39 150.64 L 164.63 153.61 L 152.22 165.10 L 149.88 167.61 L 147.96 170.34 L 146.44 173.33 L 145.35 176.51 L 144.72 179.79 L 144.55 183.21 L 144.92 199.40" fill="none" group-id="1" id="Stroke-3" node-id="13" stroke="#5558df" stroke-linecap="round" stroke-width="10" target-height="92.70999" target-width="54.509995" target-x="118.75" target-y="106.69"></path><path d="M 151.04 214.73 L 150.83 216.20 L 150.31 217.46 L 149.46 218.56 L 148.36 219.41 L 147.10 219.93 L 145.63 220.14 L 144.16 219.93 L 142.90 219.41 L 141.80 218.56 L 140.95 217.46 L 140.42 216.20 L 140.21 214.73 L 140.42 213.26 L 140.95 212.00 L 141.80 210.90 L 142.90 210.05 L 144.16 209.52 L 145.63 209.31 L 147.10 209.52 L 148.36 210.05 L 149.46 210.90 L 150.31 212.00 L 150.83 213.26 L 151.04 214.73" fill="#5558df" fill-rule="evenodd" group-id="1" id="Fill-5" node-id="14" stroke="none" target-height="10.830002" target-width="10.829987" target-x="140.21" target-y="209.31"></path></g></svg>