<?xml version="1.0" standalone="no"?><!DOCTYPE svg PUBLIC "-//W3C//DTD SVG 1.1//EN" "http://www.w3.org/Graphics/SVG/1.1/DTD/svg11.dtd"><svg height="554" node-id="1" sillyvg="true" template-height="554" template-width="554" version="1.1" viewBox="0 0 554 554" width="554" xmlns="http://www.w3.org/2000/svg" xmlns:xlink="http://www.w3.org/1999/xlink"><defs node-id="23"><clipPath id="mask-2" node-id="10"><path d="M 77.00 117.00 L 301.54 117.00 L 301.54 176.32 L 77.00 176.32 Z" fill="#000000" fill-rule="evenodd" node-id="28" stroke="none" target-height="59.320007" target-width="224.54001" target-x="77" target-y="117"></path></clipPath><clipPath id="mask-4" node-id="15"><path d="M 77.00 162.42 L 476.02 162.42 L 476.02 437.22 L 77.00 437.22 Z" fill="#000000" fill-rule="evenodd" node-id="35" stroke="none" target-height="274.8" target-width="399.02" target-x="77" target-y="162.42"></path></clipPath></defs><g node-id="53"><g node-id="54"><g clip-path="url(#mask-2)" group-id="1,2" node-id="44"><path d="M 301.54 176.32 L 77.00 176.32 L 77.00 134.69 L 77.30 131.46 L 78.11 128.50 L 79.42 125.76 L 81.17 123.28 L 83.28 121.17 L 85.76 119.42 L 88.50 118.11 L 91.46 117.30 L 94.69 117.00 L 283.85 117.00 L 287.08 117.30 L 290.03 118.11 L 292.78 119.42 L 295.26 121.17 L 297.37 123.28 L 299.12 125.76 L 300.43 128.50 L 301.24 131.46 L 301.54 134.69 L 301.54 176.32 Z" fill="#5558df" fill-rule="evenodd" group-id="1,2,4" id="Fill-1" node-id="13" stroke="none" target-height="59.320007" target-width="224.54001" target-x="77" target-y="117"></path></g></g><g node-id="55"><g clip-path="url(#mask-4)" group-id="1,3" node-id="51"><path d="M 461.13 437.22 L 91.89 437.22 L 89.17 436.97 L 86.68 436.29 L 84.37 435.19 L 82.28 433.71 L 80.51 431.94 L 79.03 429.85 L 77.93 427.55 L 77.25 425.06 L 77.00 422.34 L 77.00 177.31 L 77.25 174.59 L 77.93 172.10 L 79.03 169.80 L 80.51 167.71 L 82.28 165.94 L 84.37 164.46 L 86.68 163.36 L 89.17 162.68 L 91.89 162.42 L 461.13 162.42 L 463.85 162.68 L 466.34 163.36 L 468.65 164.46 L 470.74 165.94 L 472.51 167.71 L 473.99 169.80 L 475.09 172.10 L 475.77 174.59 L 476.02 177.31 L 476.02 422.34 L 475.77 425.06 L 475.09 427.55 L 473.99 429.85 L 472.51 431.94 L 470.74 433.71 L 468.65 435.19 L 466.34 436.29 L 463.85 436.97 L 461.13 437.22" fill="#becaff" fill-rule="evenodd" group-id="1,3,5" id="Fill-3" node-id="18" stroke="none" target-height="274.8" target-width="399.02" target-x="77" target-y="162.42"></path></g></g><path d="M 313.98 270.24 L 136.82 270.24 L 134.18 270.00 L 131.77 269.34 L 129.53 268.27 L 127.50 266.84 L 125.78 265.12 L 124.35 263.09 L 123.28 260.85 L 122.62 258.43 L 122.37 255.80 L 122.62 253.16 L 123.28 250.74 L 124.35 248.50 L 125.78 246.48 L 127.50 244.76 L 129.53 243.32 L 131.77 242.25 L 134.18 241.59 L 136.82 241.35 L 313.98 241.35 L 316.61 241.59 L 319.03 242.25 L 321.27 243.32 L 323.30 244.76 L 325.02 246.48 L 326.45 248.50 L 327.52 250.74 L 328.18 253.16 L 328.43 255.80 L 328.18 258.43 L 327.52 260.85 L 326.45 263.09 L 325.02 265.12 L 323.30 266.84 L 321.27 268.27 L 319.03 269.34 L 316.61 270.00 L 313.98 270.24" fill="#f5f7ff" fill-rule="evenodd" group-id="1" id="Fill-5" node-id="19" stroke="none" target-height="28.889984" target-width="206.06" target-x="122.37" target-y="241.35"></path><path d="M 272.71 323.32 L 135.23 323.32 L 132.88 323.10 L 130.73 322.51 L 128.74 321.56 L 126.94 320.28 L 125.41 318.75 L 124.13 316.95 L 123.18 314.96 L 122.59 312.81 L 122.37 310.46 L 122.37 307.28 L 122.59 304.93 L 123.18 302.78 L 124.13 300.79 L 125.41 298.99 L 126.94 297.45 L 128.74 296.18 L 130.73 295.23 L 132.88 294.64 L 135.23 294.42 L 272.71 294.42 L 275.05 294.64 L 277.20 295.23 L 279.19 296.18 L 281.00 297.45 L 282.53 298.99 L 283.81 300.79 L 284.76 302.78 L 285.34 304.93 L 285.56 307.28 L 285.56 310.46 L 285.34 312.81 L 284.76 314.96 L 283.81 316.95 L 282.53 318.75 L 281.00 320.28 L 279.19 321.56 L 277.20 322.51 L 275.05 323.10 L 272.71 323.32" fill="#f5f7ff" fill-rule="evenodd" group-id="1" id="Fill-7" node-id="20" stroke="none" target-height="28.899994" target-width="163.19" target-x="122.37" target-y="294.42"></path><path d="M 222.11 376.39 L 132.94 376.39 L 131.01 376.21 L 129.25 375.73 L 127.61 374.95 L 126.12 373.90 L 124.87 372.64 L 123.82 371.16 L 123.03 369.52 L 122.55 367.75 L 122.37 365.82 L 122.37 358.07 L 122.55 356.14 L 123.03 354.37 L 123.82 352.73 L 124.87 351.25 L 126.12 349.99 L 127.61 348.94 L 129.25 348.16 L 131.01 347.68 L 132.94 347.50 L 222.11 347.50 L 224.04 347.68 L 225.81 348.16 L 227.45 348.94 L 228.93 349.99 L 230.19 351.25 L 231.24 352.73 L 232.02 354.37 L 232.50 356.14 L 232.68 358.07 L 232.68 365.82 L 232.50 367.75 L 232.02 369.52 L 231.24 371.16 L 230.19 372.64 L 228.93 373.90 L 227.45 374.95 L 225.81 375.73 L 224.04 376.21 L 222.11 376.39" fill="#f5f7ff" fill-rule="evenodd" group-id="1" id="Fill-9" node-id="21" stroke="none" target-height="28.890015" target-width="110.30999" target-x="122.37" target-y="347.5"></path></g></svg>