<?xml version="1.0" standalone="no"?><!DOCTYPE svg PUBLIC "-//W3C//DTD SVG 1.1//EN" "http://www.w3.org/Graphics/SVG/1.1/DTD/svg11.dtd"><svg height="907" node-id="1" sillyvg="true" template-height="907" template-width="912" version="1.1" viewBox="0 0 912 907" width="912" xmlns="http://www.w3.org/2000/svg" xmlns:xlink="http://www.w3.org/1999/xlink"><defs node-id="20"><clipPath id="mask-2" node-id="10"><path d="M 268.84 298.00 L 748.69 298.00 L 748.69 610.37 L 268.84 610.37 Z" fill="#000000" fill-rule="evenodd" node-id="25" stroke="none" target-height="312.37" target-width="479.85" target-x="268.84" target-y="298"></path></clipPath><clipPath id="mask-4" node-id="15"><path d="M 164.00 355.96 L 554.82 355.96 L 554.82 610.37 L 164.00 610.37 Z" fill="#000000" fill-rule="evenodd" node-id="32" stroke="none" target-height="254.41" target-width="390.82" target-x="164" target-y="355.96"></path></clipPath></defs><g node-id="50"><g node-id="51"><g clip-path="url(#mask-2)" group-id="1,2" node-id="41"><path d="M 636.34 385.68 L 632.17 385.77 L 628.26 378.08 L 623.96 370.69 L 619.27 363.57 L 614.19 356.72 L 608.74 350.16 L 602.96 343.93 L 596.84 338.04 L 590.38 332.46 L 583.63 327.26 L 576.61 322.44 L 569.30 318.01 L 561.70 313.95 L 553.90 310.34 L 545.88 307.17 L 537.61 304.44 L 529.10 302.15 L 520.50 300.36 L 511.72 299.07 L 502.73 298.28 L 493.53 298.00 L 484.13 298.29 L 474.95 299.11 L 465.99 300.46 L 457.22 302.33 L 448.54 304.71 L 440.12 307.56 L 431.96 310.86 L 424.02 314.62 L 416.31 318.84 L 408.90 323.45 L 401.79 328.46 L 394.97 333.88 L 388.45 339.67 L 382.31 345.79 L 376.51 352.25 L 371.06 359.06 L 366.01 366.17 L 361.37 373.54 L 357.14 381.21 L 353.32 389.17 L 346.09 391.28 L 339.12 393.83 L 332.39 396.80 L 325.89 400.22 L 319.61 404.05 L 313.65 408.25 L 307.98 412.81 L 302.60 417.74 L 297.56 423.01 L 292.88 428.58 L 288.56 434.44 L 284.59 440.63 L 281.04 447.05 L 277.93 453.70 L 275.23 460.60 L 272.96 467.76 L 271.19 475.03 L 269.91 482.49 L 269.12 490.15 L 268.84 498.03 L 269.11 505.80 L 269.88 513.36 L 271.13 520.72 L 272.85 527.89 L 275.06 534.97 L 277.68 541.79 L 280.72 548.37 L 284.18 554.73 L 288.04 560.86 L 292.26 566.69 L 296.82 572.22 L 301.75 577.47 L 306.99 582.39 L 312.53 586.96 L 318.35 591.17 L 324.48 595.03 L 330.84 598.49 L 337.42 601.53 L 344.24 604.15 L 351.32 606.36 L 358.50 608.09 L 365.86 609.33 L 373.41 610.10 L 381.19 610.37 L 636.34 610.37 L 644.12 610.10 L 651.67 609.33 L 659.03 608.09 L 666.21 606.36 L 673.29 604.15 L 680.11 601.53 L 686.69 598.49 L 693.04 595.03 L 699.18 591.17 L 705.00 586.96 L 710.53 582.39 L 715.78 577.47 L 720.71 572.22 L 725.27 566.69 L 729.48 560.86 L 733.35 554.73 L 736.81 548.37 L 739.84 541.79 L 742.47 534.97 L 744.67 527.89 L 746.40 520.72 L 747.65 513.36 L 748.41 505.80 L 748.69 498.03 L 748.41 490.26 L 747.65 482.70 L 746.40 475.34 L 744.67 468.16 L 742.47 461.08 L 739.84 454.26 L 736.81 447.68 L 733.35 441.33 L 729.48 435.19 L 725.27 429.37 L 720.71 423.84 L 715.78 418.59 L 710.53 413.66 L 705.00 409.10 L 699.18 404.89 L 693.04 401.02 L 686.69 397.57 L 680.11 394.53 L 673.29 391.91 L 666.21 389.70 L 659.03 387.97 L 651.67 386.72 L 644.12 385.96 L 636.34 385.68" fill="#5558df" fill-rule="evenodd" group-id="1,2,4" id="Fill-1" node-id="13" stroke="none" target-height="312.37" target-width="479.85" target-x="268.84" target-y="298"></path></g></g><g clip-path="url(#mask-4)" group-id="1,3" node-id="48"><path d="M 463.32 427.37 L 459.92 427.44 L 455.87 419.64 L 451.35 412.22 L 446.34 405.16 L 440.84 398.45 L 434.89 392.12 L 428.55 386.26 L 421.81 380.84 L 414.65 375.85 L 407.18 371.38 L 399.40 367.45 L 391.31 364.05 L 382.87 361.18 L 376.01 359.34 L 369.01 357.89 L 361.85 356.84 L 354.52 356.19 L 347.00 355.96 L 339.31 356.20 L 331.83 356.88 L 324.52 357.97 L 317.38 359.48 L 310.40 361.41 L 303.49 363.76 L 296.81 366.46 L 290.36 369.51 L 284.12 372.91 L 278.08 376.68 L 270.84 381.87 L 264.04 387.50 L 257.66 393.59 L 251.68 400.15 L 246.19 407.12 L 241.22 414.44 L 236.76 422.13 L 232.81 430.21 L 226.92 431.93 L 221.24 434.01 L 215.76 436.43 L 210.46 439.21 L 205.35 442.33 L 200.49 445.75 L 195.88 449.46 L 191.50 453.48 L 187.39 457.78 L 183.58 462.31 L 180.06 467.09 L 176.83 472.12 L 173.94 477.35 L 171.40 482.77 L 169.21 488.39 L 167.36 494.22 L 165.91 500.14 L 164.87 506.22 L 164.23 512.45 L 164.00 518.87 L 164.32 526.47 L 165.21 533.81 L 166.66 540.91 L 168.66 547.79 L 171.22 554.53 L 174.23 560.95 L 177.70 567.07 L 181.65 572.91 L 186.04 578.44 L 190.80 583.57 L 195.93 588.33 L 201.46 592.72 L 207.30 596.67 L 213.42 600.14 L 219.84 603.16 L 226.58 605.71 L 233.47 607.71 L 240.57 609.16 L 247.90 610.05 L 255.50 610.37 L 463.32 610.37 L 470.91 610.05 L 478.25 609.16 L 485.35 607.71 L 492.24 605.71 L 498.98 603.16 L 505.39 600.14 L 511.51 596.67 L 517.35 592.72 L 522.88 588.33 L 528.02 583.57 L 532.77 578.44 L 537.16 572.91 L 541.11 567.07 L 544.59 560.95 L 547.60 554.53 L 550.15 547.79 L 552.15 540.91 L 553.60 533.81 L 554.49 526.47 L 554.82 518.87 L 554.49 511.27 L 553.60 503.94 L 552.15 496.84 L 550.15 489.95 L 547.60 483.21 L 544.59 476.79 L 541.11 470.67 L 537.16 464.83 L 532.77 459.31 L 528.02 454.17 L 522.88 449.42 L 517.35 445.03 L 511.51 441.08 L 505.39 437.60 L 498.98 434.59 L 492.24 432.04 L 485.35 430.03 L 478.25 428.58 L 470.91 427.69 L 463.32 427.37" fill="#9797ff" fill-rule="evenodd" group-id="1,3,5" id="Fill-3" node-id="18" stroke="none" target-height="254.41" target-width="390.82" target-x="164" target-y="355.96"></path></g></g></svg>